<svg width="241" height="252" viewBox="0 0 241 252" fill="none" xmlns="http://www.w3.org/2000/svg">
<path d="M232.692 5.1552H212.54C208.116 5.1552 205.659 8.10431 205.167 12.528L203.201 43.4937C184.523 17.4432 155.524 0.240005 118.168 0.240005C49.3552 0.240005 0.2032 55.7818 0.2032 126.069C0.2032 196.356 49.3552 251.898 118.168 251.898C155.524 251.898 184.032 234.695 203.201 209.136L205.167 238.627C205.659 243.051 208.116 246 212.54 246H232.692C237.116 246 240.065 243.051 240.065 238.627V12.528C240.065 8.10431 237.116 5.1552 232.692 5.1552ZM121.117 218.475C71.9651 218.475 35.5926 178.662 35.5926 125.578C35.5926 72.985 71.9651 33.6634 121.117 33.6634C170.269 33.6634 206.15 75.4426 206.15 125.578C206.15 176.204 170.269 218.475 121.117 218.475Z" fill="#1E1E1E"/>
</svg>
