<svg id="Layer_1" data-name="Layer 1" xmlns="http://www.w3.org/2000/svg" viewBox="0 0 809.213 468.086">
  <g>
    <g>
      <path d="M512.859,450.876l-86.4-.058a9.182,9.182,0,0,1-7.746-14.1l43.245-68.138a9.182,9.182,0,0,1,15.511.011l43.154,68.195A9.182,9.182,0,0,1,512.859,450.876Z" fill="#f4f4f4"></path>
      <path d="M462.972,433.139a6.727,6.727,0,1,1,6.717,7A6.732,6.732,0,0,1,462.972,433.139Zm1.539-34.6-.368-10.064,11.161.008-.381,10.063-1.567,23.163-7.309,0Z" fill="#fff"></path>
    </g>
    <g>
      <path d="M778.038,437.715l-79.238-.053a8.42,8.42,0,0,1-7.1-12.933l39.661-62.49a8.42,8.42,0,0,1,14.225.01l39.577,62.543A8.42,8.42,0,0,1,778.038,437.715Z" fill="#f4f4f4"></path>
      <path d="M732.286,421.448a6.169,6.169,0,1,1,6.161,6.422A6.175,6.175,0,0,1,732.286,421.448Zm1.411-31.731-.337-9.231,10.236.007-.348,9.23-1.438,21.245-6.7,0Z" fill="#fff"></path>
    </g>
    <g>
      <path d="M458.665,189.621l-93.114-.063a9.9,9.9,0,0,1-8.348-15.2l46.606-73.434a9.9,9.9,0,0,1,16.717.011l46.508,73.5A9.9,9.9,0,0,1,458.665,189.621Z" fill="#f4f4f4"></path>
      <path d="M404.9,170.5a7.25,7.25,0,1,1,7.238,7.546A7.255,7.255,0,0,1,404.9,170.5Zm1.658-37.286-.4-10.846,12.029.007-.411,10.847-1.688,24.963-7.878,0Z" fill="#fff"></path>
    </g>
    <g>
      <path d="M681.094,267.168l-87.1-.059a9.256,9.256,0,0,1-7.808-14.216l43.6-68.692a9.256,9.256,0,0,1,15.636.011l43.505,68.75A9.257,9.257,0,0,1,681.094,267.168Z" fill="#f4f4f4"></path>
      <path d="M630.8,249.287a6.782,6.782,0,1,1,6.773,7.06A6.788,6.788,0,0,1,630.8,249.287Zm1.552-34.881-.371-10.147,11.253.008-.384,10.146-1.58,23.354-7.37,0Z" fill="#fff"></path>
    </g>
    <g>
      <g>
        <g>
          <path d="M555.188,220.3a4.791,4.791,0,0,0-4.9-2.593.43.43,0,0,0-.055-.252.424.424,0,0,0-.393-.16l3.322-2.381a4.985,4.985,0,0,0,1.644-6.342,4.8,4.8,0,0,0-6.07-2.147c.008-.047-.024-.092-.03-.14l1.364-.979a4.922,4.922,0,0,0,1.731-5.982,4.809,4.809,0,0,0-7.184-1.932l-3.15,2.258c-.009-.019,0-.041-.013-.058s-.046-.024-.064-.043a4.8,4.8,0,0,0,.316-5.983c-1.487-2.392-4.919-1.9-6.955-.443l-18.539,12.8,3.314-5.578a4.988,4.988,0,0,0-1.32-6.681,4.8,4.8,0,0,0-6.8,1.539l-18.093,30.46a15.967,15.967,0,0,0,5.186,21.645h0a24.2,24.2,0,0,0,27.043-.776l28-20.067A5.144,5.144,0,0,0,555.188,220.3Z" fill="#E98862"></path>
          <g opacity="0.25">
            <path d="M523.12,212.31a.444.444,0,0,0,.611.1l17.614-12.2a.443.443,0,1,0-.5-.729l-17.614,12.2a.444.444,0,0,0-.112.617Z" fill="#0c0c0c"></path>
          </g>
          <g opacity="0.25">
            <path d="M528.286,220.227a.444.444,0,0,0,.611.1l19.658-13.616a.444.444,0,0,0,.112-.617.459.459,0,0,0-.617-.112L528.392,219.6a.444.444,0,0,0-.112.617Z" fill="#0c0c0c"></path>
          </g>
          <g opacity="0.25">
            <path d="M533.833,228.834a.444.444,0,0,0,.611.1l15.681-10.861a.444.444,0,0,0-.506-.729l-15.681,10.861a.443.443,0,0,0-.111.617Z" fill="#0c0c0c"></path>
          </g>
        </g>
        <path d="M485.336,214.685,440.3,318.678l-62.134-85.039-53.842,48.542,91.949,119.084.6.847a36.763,36.763,0,0,0,62.223-4.554l64.757-150.327Z" fill="#242423"></path>
        <path d="M435.093,329.559a.674.674,0,0,1-.6-.982l5.209-10.206a.675.675,0,0,1,1.2.614l-5.209,10.207A.674.674,0,0,1,435.093,329.559Z" fill="#0c0c0c"></path>
        <g>
          <g>
            <path d="M214.451,114.167s-5.886,31.364-14.37,41.984c-24.425,30.573-34.8,67.013-16.613,88.872s148.948,37.766,164.193-5.689c12.835-36.585-4.584-42.766-5.233-74.289-.294-14.264-2.2-44.327-2.2-44.327" fill="#0a0a0a"></path>
            <path id="sk" d="M320.532,222.759c-.227-.029-2.75,41.838-51.389,38.188-33.672-2.522-45.677-38.247-46.449-38.247,3.63-.772,9.744-1.894,11.356-2.754,5.3-2.849,11.863-5.813,13.572-16.11.985-5.935-.686-36.3-.172-42.3l51.686,11.537c-.722,12.681-5.777,42.079,11.94,47.283C314.024,221.216,317.2,222.008,320.532,222.759Z" fill="#E98862"></path>
            <path id="sh" d="M299.861,208.341a37.414,37.414,0,0,1-1.555-8.022,85.507,85.507,0,0,1,.338-18.658,56.673,56.673,0,0,1-28.566-12.515c-.96,3.544-6.238,19.032-4.777,22.4C268.064,197.914,281.044,208.341,299.861,208.341Z" fill="#0c0c0c" opacity="1"></path>
            <path d="M290.687,198.225c-20.468-.461-45.68-11.684-47.882-39.278l-1.986-24.9c-2.2-27.593,10.506-51.119,36.486-53.192h0c25.98-2.073,47.185,18.747,49.386,46.34l.88,11.023C328.417,148.807,327.205,199.048,290.687,198.225Z" fill="#E98862"></path>
            <path d="M302.784,161.6l.051,0a29.113,29.113,0,0,0,3.137-.449c1.549-.32,3.6-.905,3.486-2.285-.125-1.572-5.785-18.193-6.431-20.083a.658.658,0,0,0-1.245.425c2.416,7.079,6.281,18.7,6.365,19.763-.221.462-2.805,1.108-5.417,1.317a.658.658,0,0,0,.054,1.314Z" fill="#0c0c0c" opacity="1"></path>
            <path d="M298.536,168.7a26.88,26.88,0,0,0-12.068,3.118.657.657,0,0,0,.592,1.174c8.034-4.052,15.567-4.017,21.784.1a4.526,4.526,0,0,0,.389.241.658.658,0,0,0,.58-1.181c-.049-.027-.13-.082-.242-.157A19.72,19.72,0,0,0,298.536,168.7Z" fill="#0c0c0c" opacity="1"></path>
            <path d="M219.533,140.357l23.275-1.724c18.04-5.131,26.494-34.491,26.494-34.491s18.79,22.728,70.927,16.576c0,0-2.551-72.06-79.946-59.532-24.956,4.039-44.986,26.589-46.339,59.467C213,143.694,219.533,140.357,219.533,140.357Z" fill="#0a0a0a"></path>
            <path d="M245.09,167.225c-7.9.63-14.97-7.306-15.6-15.2s5.423-12.761,13.318-13.391L247.3,143.6l4.579,23.085Z" fill="#E98862"></path>
            <path d="M309.084,126.352a15.07,15.07,0,0,1,7.807-1.57,13.276,13.276,0,0,1,3.879.839,15.651,15.651,0,0,1,3.481,1.832.687.687,0,0,1-.726,1.166l-.046-.027a14.175,14.175,0,0,0-3.214-1.508,11.643,11.643,0,0,0-3.457-.584,13.2,13.2,0,0,0-6.674,1.628l-.067.038a1.032,1.032,0,0,1-1.025-1.791Z" fill="#0c0c0c"></path>
            <path d="M288.212,128.949a13.213,13.213,0,0,0-6.845-.579,11.637,11.637,0,0,0-3.326,1.11,14.121,14.121,0,0,0-2.942,1.986l-.041.032a.687.687,0,0,1-.9-1.039,15.687,15.687,0,0,1,3.157-2.347,13.254,13.254,0,0,1,3.7-1.426,15.045,15.045,0,0,1,7.956.347,1.032,1.032,0,0,1-.647,1.96l-.042-.015Z" fill="#0c0c0c"></path>
            <path d="M242.889,138.35l-.158-.657c30.037-7.263,26.026-36.4,25.982-36.7l.667-.1C269.425,101.2,273.536,130.939,242.889,138.35Z" fill="#0c0c0c"></path>
          </g>
          <ellipse cx="282.049" cy="156.892" rx="6.115" ry="4.486" fill="#0c0c0c" opacity="0.1"></ellipse>
          <path d="M318.4,155.82c.007,2.475,2.743,4.482,6.121,4.487a8.471,8.471,0,0,0,1.737-.181c.5-2.89.846-5.686,1.07-8.286a7.684,7.684,0,0,0-2.81-.5C321.14,151.33,318.4,153.337,318.4,155.82Z" fill="#0c0c0c" opacity="0.1"></path>
        </g>
        <path d="M380.962,314.933c-1.532,18-8.984,130.287-10.457,152.457h-203c-1.146-20-6.3-107.427-10.644-146.527-4.151-37.311-12.3-55.991-6.326-67.021,9.755-18.028,23.764-34.287,50.624-36.535,11.162-.934,31.757,3.049,31.757,3.049s1.413,28.593,35.117,30.185c45.88,2.164,42.83-30.107,43.044-30.185,9.457-3.458,41.114-9,55.612.572C394.344,239.191,384.214,276.792,380.962,314.933Z" fill="#242423"></path>
        <circle cx="315.189" cy="136.265" r="3.21" fill="#0c0c0c"></circle>
        <circle cx="283.718" cy="137.315" r="3.21" fill="#0c0c0c"></circle>
        <rect x="364.962" y="340.27" width="28.627" height="1.35" transform="translate(17.389 700.292) rotate(-86.752)" fill="#0c0c0c"></rect>
        <g>
          <path d="M.647,232.921a4.792,4.792,0,0,1,5.115-2.131.428.428,0,0,1,.078-.246.422.422,0,0,1,.406-.123l-3.088-2.677A4.985,4.985,0,0,1,2.1,221.278,4.8,4.8,0,0,1,8.347,219.7c0-.048.031-.09.043-.137l-1.269-1.1a4.922,4.922,0,0,1-1.172-6.116,4.81,4.81,0,0,1,7.331-1.263l2.929,2.539c.011-.018,0-.041.018-.057s.048-.019.068-.037a4.8,4.8,0,0,1,.236-5.986c1.7-2.245,5.073-1.442,6.967.2L40.778,222.2l-2.786-5.86a4.989,4.989,0,0,1,1.929-6.531,4.805,4.805,0,0,1,6.633,2.16l15.211,32a15.967,15.967,0,0,1-7.157,21.076h0a24.2,24.2,0,0,1-26.857-3.264L1.722,239.216A5.143,5.143,0,0,1,.647,232.921Z" fill="#E98862"></path>
          <g opacity="0.25">
            <path d="M33.315,227.914a.444.444,0,0,1-.618.046L16.281,214.19a.444.444,0,0,1,.57-.68l16.416,13.771a.444.444,0,0,1,.055.625Z" fill="#0c0c0c"></path>
          </g>
          <g opacity="0.25">
            <path d="M27.442,235.321a.443.443,0,0,1-.618.047L8.5,220a.444.444,0,0,1-.054-.625.458.458,0,0,1,.624-.054l18.321,15.368a.442.442,0,0,1,.054.624Z" fill="#0c0c0c"></path>
          </g>
          <g opacity="0.25">
            <path d="M21.126,243.381a.444.444,0,0,1-.618.047L5.894,231.169a.443.443,0,0,1,.57-.679l14.615,12.258a.445.445,0,0,1,.054.625Z" fill="#0c0c0c"></path>
          </g>
        </g>
        <path d="M68.905,231.578l34.234,87.793,49.984-70.188,53.842,48.541-77.1,117.734-.6.848a36.764,36.764,0,0,1-62.223-4.554L11.733,262.774Z" fill="#242423"></path>
        <path d="M108.348,330.253a.675.675,0,0,0,.6-.982l-5.209-10.207a.676.676,0,0,0-1.2.615l5.209,10.206A.673.673,0,0,0,108.348,330.253Z" fill="#0c0c0c"></path>
      </g>
      <path d="M161.005,368.694a.787.787,0,0,1-.784-.724l-2.138-26.417a.787.787,0,0,1,1.569-.127l2.138,26.417a.787.787,0,0,1-.721.848Z" fill="#292a2e"></path>
    </g>
    <g>
      <polygon points="720.168 256.959 718.168 256.959 718.168 66.848 514.531 66.848 514.531 64.848 720.168 64.848 720.168 256.959" fill="#0a0a0a"></polygon>
      <g>
        <g>
          <path d="M709.335,8.542,649.719,111.8a11.355,11.355,0,0,0,9.833,17.032H778.784a11.355,11.355,0,0,0,9.833-17.032L729,8.542A11.354,11.354,0,0,0,709.335,8.542Z" fill="#fff"></path>
          <path d="M778.784,129.831H659.553a12.354,12.354,0,0,1-10.7-18.532L708.469,8.042a12.354,12.354,0,0,1,21.4,0L789.483,111.3a12.355,12.355,0,0,1-10.7,18.532ZM719.168,3.865A10.248,10.248,0,0,0,710.2,9.042h0L650.586,112.3a10.354,10.354,0,0,0,8.967,15.532H778.784a10.355,10.355,0,0,0,8.967-15.532L728.135,9.042A10.249,10.249,0,0,0,719.168,3.865Zm-9.833,4.677h0Z" fill="#292a2e"></path>
        </g>
        <path d="M711.262,98.365a7.925,7.925,0,1,1,7.919,8.245A7.931,7.931,0,0,1,711.262,98.365ZM713.047,57.6l-.442-11.857h13.152L725.315,57.6l-1.828,27.294h-8.612Z" fill="#292a2e"></path>
      </g>
      <g>
        <g>
          <path d="M803.946,384.089H634.39c-5.063,0-6.2-5.9-4.578-9.009l10.667-14.235a4.677,4.677,0,0,1,4.147-2.514H793.71a4.677,4.677,0,0,1,4.147,2.514l10.667,14.235C810.148,378.193,809.009,384.089,803.946,384.089Z" fill="#292a2e"></path>
          <g>
            <rect x="665.964" y="225.578" width="106.408" height="152.381" rx="6.541" transform="translate(417.399 1020.936) rotate(-90)" fill="#292a2e"></rect>
            <path d="M791.242,256.658v90.221a4.213,4.213,0,0,1-4.213,4.213H651.07a4.263,4.263,0,0,1-4.263-4.263V256.708a4.263,4.263,0,0,1,4.263-4.263H787.029A4.213,4.213,0,0,1,791.242,256.658Z" fill="#fff"></path>
          </g>
          <path d="M803.946,380.731H634.39a4.676,4.676,0,0,1-4.146-6.839l10.235-16.406a4.677,4.677,0,0,1,4.147-2.514H793.71a4.677,4.677,0,0,1,4.147,2.514l10.235,16.406A4.676,4.676,0,0,1,803.946,380.731Z" fill="#292a2e"></path>
          <path d="M803.946,380.731H634.39a4.676,4.676,0,0,1-4.146-6.839l10.235-16.406a4.677,4.677,0,0,1,4.147-2.514H793.71a4.677,4.677,0,0,1,4.147,2.514l10.235,16.406A4.676,4.676,0,0,1,803.946,380.731Z" fill="#fff" opacity="0.1"></path>
        </g>
        <g>
          <path d="M714.425,271.335l-28.759,49.811a5.478,5.478,0,0,0,4.744,8.216h57.516a5.478,5.478,0,0,0,4.744-8.216l-28.759-49.811A5.477,5.477,0,0,0,714.425,271.335Z" fill="#242423"></path>
          <path d="M715.354,314.665a3.824,3.824,0,1,1,3.821,3.978A3.827,3.827,0,0,1,715.354,314.665ZM716.216,295,716,289.276h6.344L722.135,295l-.882,13.169H717.1Z" fill="#fff"></path>
        </g>
      </g>
      <g>
        <g>
          <rect x="405.383" y="1" width="147.001" height="121.037" fill="#fff"></rect>
          <path d="M552.385,123.037h-147a1,1,0,0,1-1-1V1a1,1,0,0,1,1-1h147a1,1,0,0,1,1,1V122.037A1,1,0,0,1,552.385,123.037Zm-146-2h145V2h-145Z" fill="#292a2e"></path>
        </g>
        <g>
          <g>
            <rect x="438.349" y="6.204" width="108.666" height="32.678" fill="#242423"></rect>
            <g opacity="0.69">
              <rect x="438.349" y="6.204" width="108.666" height="32.678" fill="#fff"></rect>
            </g>
            <path d="M547.016,39.426H438.35a.544.544,0,0,1-.545-.544V6.2a.544.544,0,0,1,.545-.545H547.016a.545.545,0,0,1,.545.545V38.882A.544.544,0,0,1,547.016,39.426ZM438.9,38.337H546.471V6.749H438.9Z" fill="#292a2e"></path>
            <g>
              <circle cx="454.857" cy="22.543" r="6.704" fill="#fff"></circle>
              <path d="M454.857,29.791a7.249,7.249,0,1,1,7.249-7.249A7.257,7.257,0,0,1,454.857,29.791Zm0-13.407a6.159,6.159,0,1,0,6.159,6.158A6.165,6.165,0,0,0,454.857,16.384Z" fill="#292a2e"></path>
            </g>
            <path d="M516.6,22.415H470.21a.545.545,0,0,1,0-1.09H516.6a.545.545,0,1,1,0,1.09Z" fill="#292a2e"></path>
            <path d="M528.851,22.415h-1.73a.545.545,0,0,1,0-1.09h1.73a.545.545,0,0,1,0,1.09Z" fill="#292a2e"></path>
            <path d="M522.779,22.415H521.05a.545.545,0,0,1,0-1.09h1.729a.545.545,0,1,1,0,1.09Z" fill="#292a2e"></path>
            <path d="M535.338,22.415h-1.73a.545.545,0,0,1,0-1.09h1.73a.545.545,0,1,1,0,1.09Z" fill="#292a2e"></path>
          </g>
          <g>
            <rect x="438.349" y="44.602" width="108.666" height="32.678" fill="#242423"></rect>
            <g opacity="0.69">
              <rect x="438.349" y="44.602" width="108.666" height="32.678" fill="#fff"></rect>
            </g>
            <path d="M547.016,77.824H438.35a.544.544,0,0,1-.545-.544V44.6a.544.544,0,0,1,.545-.545H547.016a.545.545,0,0,1,.545.545V77.28A.544.544,0,0,1,547.016,77.824ZM438.9,76.735H546.471V45.147H438.9Z" fill="#292a2e"></path>
            <g>
              <circle cx="454.857" cy="60.941" r="6.704" fill="#fff"></circle>
              <path d="M454.857,68.189a7.249,7.249,0,1,1,7.249-7.248A7.257,7.257,0,0,1,454.857,68.189Zm0-13.407a6.159,6.159,0,1,0,6.159,6.159A6.165,6.165,0,0,0,454.857,54.782Z" fill="#292a2e"></path>
            </g>
            <path d="M516.6,60.813H470.21a.545.545,0,0,1,0-1.09H516.6a.545.545,0,1,1,0,1.09Z" fill="#292a2e"></path>
            <path d="M528.851,60.813h-1.73a.545.545,0,0,1,0-1.09h1.73a.545.545,0,0,1,0,1.09Z" fill="#292a2e"></path>
            <path d="M522.779,60.813H521.05a.545.545,0,0,1,0-1.09h1.729a.545.545,0,1,1,0,1.09Z" fill="#292a2e"></path>
            <path d="M535.338,60.813h-1.73a.545.545,0,0,1,0-1.09h1.73a.545.545,0,1,1,0,1.09Z" fill="#292a2e"></path>
          </g>
          <g>
            <rect x="438.349" y="83" width="108.666" height="32.678" fill="#242423"></rect>
            <g opacity="0.69">
              <rect x="438.349" y="83" width="108.666" height="32.678" fill="#fff"></rect>
            </g>
            <path d="M547.016,116.223H438.35a.544.544,0,0,1-.545-.545V83a.544.544,0,0,1,.545-.545H547.016a.545.545,0,0,1,.545.545v32.678A.545.545,0,0,1,547.016,116.223ZM438.9,115.133H546.471V83.545H438.9Z" fill="#292a2e"></path>
            <g>
              <circle cx="454.857" cy="99.339" r="6.704" fill="#fff"></circle>
              <path d="M454.857,106.587a7.249,7.249,0,1,1,7.249-7.248A7.257,7.257,0,0,1,454.857,106.587Zm0-13.407a6.159,6.159,0,1,0,6.159,6.159A6.165,6.165,0,0,0,454.857,93.18Z" fill="#292a2e"></path>
            </g>
            <path d="M516.6,99.211H470.21a.545.545,0,0,1,0-1.09H516.6a.545.545,0,1,1,0,1.09Z" fill="#292a2e"></path>
            <path d="M528.851,99.211h-1.73a.545.545,0,0,1,0-1.09h1.73a.545.545,0,0,1,0,1.09Z" fill="#292a2e"></path>
            <path d="M522.779,99.211H521.05a.545.545,0,0,1,0-1.09h1.729a.545.545,0,1,1,0,1.09Z" fill="#292a2e"></path>
            <path d="M535.338,99.211h-1.73a.545.545,0,0,1,0-1.09h1.73a.545.545,0,1,1,0,1.09Z" fill="#292a2e"></path>
          </g>
        </g>
        <path d="M432.643,123.037a1,1,0,0,1-1-1V1a1,1,0,0,1,2,0V122.037A1,1,0,0,1,432.643,123.037Z" fill="#292a2e"></path>
      </g>
      <g>
        <circle cx="584.122" cy="65.848" r="4.476" fill="#fff"></circle>
        <path d="M584.122,71.324a5.477,5.477,0,1,1,5.476-5.476A5.482,5.482,0,0,1,584.122,71.324Zm0-8.953a3.477,3.477,0,1,0,3.476,3.477A3.481,3.481,0,0,0,584.122,62.371Z" fill="#292a2e"></path>
      </g>
      <g>
        <circle cx="636.022" cy="65.848" r="4.476" fill="#fff"></circle>
        <path d="M636.022,71.324a5.477,5.477,0,1,1,5.477-5.476A5.482,5.482,0,0,1,636.022,71.324Zm0-8.953a3.477,3.477,0,1,0,3.477,3.477A3.48,3.48,0,0,0,636.022,62.371Z" fill="#292a2e"></path>
      </g>
      <g>
        <g>
          <circle cx="719.168" cy="188.743" r="15.736" fill="#fff"></circle>
          <path d="M719.168,205.479A16.736,16.736,0,1,1,735.9,188.743,16.755,16.755,0,0,1,719.168,205.479Zm0-31.472A14.736,14.736,0,1,0,733.9,188.743,14.753,14.753,0,0,0,719.168,174.007Z" fill="#292a2e"></path>
        </g>
        <g>
          <path d="M725.645,196.221a1,1,0,0,1-.707-.293l-12.954-12.955a1,1,0,0,1,1.414-1.414l12.954,12.955a1,1,0,0,1-.707,1.707Z" fill="#0a0a0a"></path>
          <path d="M712.691,196.221a1,1,0,0,1-.707-1.707l12.954-12.955a1,1,0,0,1,1.414,1.414L713.4,195.928A1,1,0,0,1,712.691,196.221Z" fill="#0a0a0a"></path>
        </g>
      </g>
    </g>
  </g>
  <path d="M404.184,468.086H149.116a.7.7,0,1,1,0-1.393H404.184a.7.7,0,0,1,0,1.393Z" fill="#292a2e"></path>
</svg>